<mxfile host="app.diagrams.net" agent="Mozilla/5.0 (X11; Linux x86_64) AppleWebKit/537.36 (KHTML, like Gecko) Chrome/134.0.0.0 Safari/537.36" version="26.0.16">
  <diagram name="Page-1" id="t1vXy1QBSRWjMCU63GLH">
    <mxGraphModel dx="993" dy="625" grid="1" gridSize="10" guides="1" tooltips="1" connect="1" arrows="1" fold="1" page="1" pageScale="1" pageWidth="850" pageHeight="1100" math="0" shadow="0">
      <root>
        <mxCell id="0" />
        <mxCell id="1" parent="0" />
        <mxCell id="-SibCqfSAcz3j39xvlIU-39" value="Hidden Layer" style="rounded=1;whiteSpace=wrap;html=1;dashed=1;verticalAlign=top;" vertex="1" parent="1">
          <mxGeometry x="440" y="115" width="90" height="240" as="geometry" />
        </mxCell>
        <mxCell id="-SibCqfSAcz3j39xvlIU-1" value="Word&amp;nbsp; &amp;nbsp; &amp;nbsp; &amp;nbsp; &amp;nbsp; Embeddings" style="rounded=1;whiteSpace=wrap;html=1;rotation=-90;fontSize=22;horizontal=1;" vertex="1" parent="1">
          <mxGeometry x="-15" y="230" width="320" height="40" as="geometry" />
        </mxCell>
        <mxCell id="-SibCqfSAcz3j39xvlIU-2" value="DATA" style="rounded=1;whiteSpace=wrap;html=1;horizontal=0;fontSize=19;" vertex="1" parent="1">
          <mxGeometry x="15" y="170" width="40" height="120" as="geometry" />
        </mxCell>
        <mxCell id="-SibCqfSAcz3j39xvlIU-3" value="" style="endArrow=classic;html=1;rounded=0;exitX=1;exitY=0.25;exitDx=0;exitDy=0;entryX=0.653;entryY=-0.05;entryDx=0;entryDy=0;entryPerimeter=0;" edge="1" parent="1" source="-SibCqfSAcz3j39xvlIU-2" target="-SibCqfSAcz3j39xvlIU-1">
          <mxGeometry width="50" height="50" relative="1" as="geometry">
            <mxPoint x="335" y="280" as="sourcePoint" />
            <mxPoint x="125" y="181" as="targetPoint" />
          </mxGeometry>
        </mxCell>
        <mxCell id="-SibCqfSAcz3j39xvlIU-4" value="" style="endArrow=classic;html=1;rounded=0;exitX=1;exitY=0.25;exitDx=0;exitDy=0;entryX=0.716;entryY=0;entryDx=0;entryDy=0;entryPerimeter=0;" edge="1" parent="1">
          <mxGeometry width="50" height="50" relative="1" as="geometry">
            <mxPoint x="55" y="260" as="sourcePoint" />
            <mxPoint x="125" y="261" as="targetPoint" />
          </mxGeometry>
        </mxCell>
        <mxCell id="-SibCqfSAcz3j39xvlIU-5" value="" style="endArrow=classic;html=1;rounded=0;exitX=1;exitY=0.25;exitDx=0;exitDy=0;entryX=0.716;entryY=0;entryDx=0;entryDy=0;entryPerimeter=0;" edge="1" parent="1">
          <mxGeometry width="50" height="50" relative="1" as="geometry">
            <mxPoint x="55" y="220" as="sourcePoint" />
            <mxPoint x="125" y="221" as="targetPoint" />
          </mxGeometry>
        </mxCell>
        <mxCell id="-SibCqfSAcz3j39xvlIU-6" value="" style="endArrow=classic;html=1;rounded=0;exitX=1;exitY=0.25;exitDx=0;exitDy=0;entryX=0.716;entryY=0;entryDx=0;entryDy=0;entryPerimeter=0;" edge="1" parent="1">
          <mxGeometry width="50" height="50" relative="1" as="geometry">
            <mxPoint x="55" y="240" as="sourcePoint" />
            <mxPoint x="125" y="241" as="targetPoint" />
          </mxGeometry>
        </mxCell>
        <mxCell id="-SibCqfSAcz3j39xvlIU-7" value="Input Layer" style="rounded=1;whiteSpace=wrap;html=1;dashed=1;verticalAlign=top;" vertex="1" parent="1">
          <mxGeometry x="280" y="120" width="90" height="240" as="geometry" />
        </mxCell>
        <mxCell id="-SibCqfSAcz3j39xvlIU-8" value="" style="ellipse;whiteSpace=wrap;html=1;aspect=fixed;fillColor=#6d8764;fontColor=#ffffff;strokeColor=#3A5431;" vertex="1" parent="1">
          <mxGeometry x="305" y="150" width="30" height="30" as="geometry" />
        </mxCell>
        <mxCell id="-SibCqfSAcz3j39xvlIU-9" value="" style="ellipse;whiteSpace=wrap;html=1;aspect=fixed;fillColor=#6d8764;fontColor=#ffffff;strokeColor=#3A5431;" vertex="1" parent="1">
          <mxGeometry x="305" y="190" width="30" height="30" as="geometry" />
        </mxCell>
        <mxCell id="-SibCqfSAcz3j39xvlIU-10" value="" style="ellipse;whiteSpace=wrap;html=1;aspect=fixed;fillColor=#6d8764;fontColor=#ffffff;strokeColor=#3A5431;" vertex="1" parent="1">
          <mxGeometry x="305" y="260" width="30" height="30" as="geometry" />
        </mxCell>
        <mxCell id="-SibCqfSAcz3j39xvlIU-11" value="" style="ellipse;whiteSpace=wrap;html=1;aspect=fixed;fillColor=#6d8764;fontColor=#ffffff;strokeColor=#3A5431;" vertex="1" parent="1">
          <mxGeometry x="305" y="300" width="30" height="30" as="geometry" />
        </mxCell>
        <mxCell id="-SibCqfSAcz3j39xvlIU-12" value="" style="endArrow=none;dashed=1;html=1;dashPattern=1 3;strokeWidth=2;rounded=0;exitX=0.5;exitY=0.6;exitDx=0;exitDy=0;exitPerimeter=0;" edge="1" parent="1">
          <mxGeometry width="50" height="50" relative="1" as="geometry">
            <mxPoint x="319.5" y="250" as="sourcePoint" />
            <mxPoint x="319.5" y="220" as="targetPoint" />
          </mxGeometry>
        </mxCell>
        <mxCell id="-SibCqfSAcz3j39xvlIU-13" value="" style="ellipse;whiteSpace=wrap;html=1;aspect=fixed;fillColor=#6d8764;fontColor=#ffffff;strokeColor=#3A5431;" vertex="1" parent="1">
          <mxGeometry x="470" y="155" width="30" height="30" as="geometry" />
        </mxCell>
        <mxCell id="-SibCqfSAcz3j39xvlIU-14" value="" style="ellipse;whiteSpace=wrap;html=1;aspect=fixed;fillColor=#6d8764;fontColor=#ffffff;strokeColor=#3A5431;" vertex="1" parent="1">
          <mxGeometry x="470" y="220" width="30" height="30" as="geometry" />
        </mxCell>
        <mxCell id="-SibCqfSAcz3j39xvlIU-15" value="" style="ellipse;whiteSpace=wrap;html=1;aspect=fixed;fillColor=#6d8764;fontColor=#ffffff;strokeColor=#3A5431;" vertex="1" parent="1">
          <mxGeometry x="470" y="285" width="30" height="30" as="geometry" />
        </mxCell>
        <mxCell id="-SibCqfSAcz3j39xvlIU-16" value="" style="endArrow=none;html=1;rounded=0;exitX=1;exitY=0.5;exitDx=0;exitDy=0;entryX=0;entryY=0.5;entryDx=0;entryDy=0;strokeColor=#666666;" edge="1" parent="1" source="-SibCqfSAcz3j39xvlIU-8" target="-SibCqfSAcz3j39xvlIU-13">
          <mxGeometry width="50" height="50" relative="1" as="geometry">
            <mxPoint x="400" y="280" as="sourcePoint" />
            <mxPoint x="450" y="230" as="targetPoint" />
          </mxGeometry>
        </mxCell>
        <mxCell id="-SibCqfSAcz3j39xvlIU-17" value="" style="endArrow=none;html=1;rounded=0;exitX=1;exitY=0.5;exitDx=0;exitDy=0;entryX=0;entryY=0.5;entryDx=0;entryDy=0;" edge="1" parent="1" source="-SibCqfSAcz3j39xvlIU-9" target="-SibCqfSAcz3j39xvlIU-14">
          <mxGeometry width="50" height="50" relative="1" as="geometry">
            <mxPoint x="400" y="280" as="sourcePoint" />
            <mxPoint x="450" y="230" as="targetPoint" />
          </mxGeometry>
        </mxCell>
        <mxCell id="-SibCqfSAcz3j39xvlIU-18" value="" style="endArrow=none;html=1;rounded=0;exitX=1;exitY=0.5;exitDx=0;exitDy=0;entryX=0;entryY=0.5;entryDx=0;entryDy=0;strokeColor=#808080;" edge="1" parent="1" source="-SibCqfSAcz3j39xvlIU-10" target="-SibCqfSAcz3j39xvlIU-15">
          <mxGeometry width="50" height="50" relative="1" as="geometry">
            <mxPoint x="400" y="280" as="sourcePoint" />
            <mxPoint x="450" y="230" as="targetPoint" />
          </mxGeometry>
        </mxCell>
        <mxCell id="-SibCqfSAcz3j39xvlIU-19" value="" style="endArrow=none;html=1;rounded=0;exitX=1;exitY=0.5;exitDx=0;exitDy=0;entryX=0;entryY=0.5;entryDx=0;entryDy=0;strokeColor=#4D4D4D;" edge="1" parent="1" source="-SibCqfSAcz3j39xvlIU-11" target="-SibCqfSAcz3j39xvlIU-15">
          <mxGeometry width="50" height="50" relative="1" as="geometry">
            <mxPoint x="400" y="280" as="sourcePoint" />
            <mxPoint x="450" y="230" as="targetPoint" />
          </mxGeometry>
        </mxCell>
        <mxCell id="-SibCqfSAcz3j39xvlIU-20" value="" style="endArrow=none;html=1;rounded=0;entryX=0;entryY=0.5;entryDx=0;entryDy=0;exitX=1;exitY=0.5;exitDx=0;exitDy=0;" edge="1" parent="1" source="-SibCqfSAcz3j39xvlIU-8" target="-SibCqfSAcz3j39xvlIU-14">
          <mxGeometry width="50" height="50" relative="1" as="geometry">
            <mxPoint x="340" y="170" as="sourcePoint" />
            <mxPoint x="450" y="230" as="targetPoint" />
          </mxGeometry>
        </mxCell>
        <mxCell id="-SibCqfSAcz3j39xvlIU-21" value="" style="endArrow=none;html=1;rounded=0;exitX=1;exitY=0.5;exitDx=0;exitDy=0;strokeColor=#CCCCCC;" edge="1" parent="1" source="-SibCqfSAcz3j39xvlIU-9" target="-SibCqfSAcz3j39xvlIU-13">
          <mxGeometry width="50" height="50" relative="1" as="geometry">
            <mxPoint x="400" y="280" as="sourcePoint" />
            <mxPoint x="450" y="230" as="targetPoint" />
          </mxGeometry>
        </mxCell>
        <mxCell id="-SibCqfSAcz3j39xvlIU-22" value="" style="endArrow=none;html=1;rounded=0;exitX=1;exitY=0.5;exitDx=0;exitDy=0;entryX=0;entryY=0.5;entryDx=0;entryDy=0;strokeColor=#B3B3B3;" edge="1" parent="1" source="-SibCqfSAcz3j39xvlIU-8" target="-SibCqfSAcz3j39xvlIU-15">
          <mxGeometry width="50" height="50" relative="1" as="geometry">
            <mxPoint x="400" y="280" as="sourcePoint" />
            <mxPoint x="450" y="230" as="targetPoint" />
          </mxGeometry>
        </mxCell>
        <mxCell id="-SibCqfSAcz3j39xvlIU-23" value="" style="endArrow=none;html=1;rounded=0;exitX=1;exitY=0.5;exitDx=0;exitDy=0;entryX=0;entryY=0.5;entryDx=0;entryDy=0;strokeColor=#333333;" edge="1" parent="1" source="-SibCqfSAcz3j39xvlIU-9" target="-SibCqfSAcz3j39xvlIU-15">
          <mxGeometry width="50" height="50" relative="1" as="geometry">
            <mxPoint x="400" y="280" as="sourcePoint" />
            <mxPoint x="450" y="230" as="targetPoint" />
          </mxGeometry>
        </mxCell>
        <mxCell id="-SibCqfSAcz3j39xvlIU-24" value="" style="endArrow=none;html=1;rounded=0;exitX=1;exitY=0.5;exitDx=0;exitDy=0;entryX=0;entryY=0.5;entryDx=0;entryDy=0;" edge="1" parent="1" source="-SibCqfSAcz3j39xvlIU-10" target="-SibCqfSAcz3j39xvlIU-13">
          <mxGeometry width="50" height="50" relative="1" as="geometry">
            <mxPoint x="340" y="270" as="sourcePoint" />
            <mxPoint x="450" y="230" as="targetPoint" />
          </mxGeometry>
        </mxCell>
        <mxCell id="-SibCqfSAcz3j39xvlIU-25" value="" style="endArrow=none;html=1;rounded=0;exitX=1;exitY=0.5;exitDx=0;exitDy=0;entryX=0;entryY=0.5;entryDx=0;entryDy=0;" edge="1" parent="1" source="-SibCqfSAcz3j39xvlIU-10" target="-SibCqfSAcz3j39xvlIU-14">
          <mxGeometry width="50" height="50" relative="1" as="geometry">
            <mxPoint x="400" y="280" as="sourcePoint" />
            <mxPoint x="450" y="230" as="targetPoint" />
          </mxGeometry>
        </mxCell>
        <mxCell id="-SibCqfSAcz3j39xvlIU-26" value="" style="endArrow=none;html=1;rounded=0;exitX=1;exitY=0.5;exitDx=0;exitDy=0;entryX=0;entryY=0.5;entryDx=0;entryDy=0;strokeColor=#999999;" edge="1" parent="1" source="-SibCqfSAcz3j39xvlIU-11" target="-SibCqfSAcz3j39xvlIU-13">
          <mxGeometry width="50" height="50" relative="1" as="geometry">
            <mxPoint x="400" y="280" as="sourcePoint" />
            <mxPoint x="450" y="230" as="targetPoint" />
          </mxGeometry>
        </mxCell>
        <mxCell id="-SibCqfSAcz3j39xvlIU-27" value="" style="endArrow=none;html=1;rounded=0;exitX=1;exitY=0.5;exitDx=0;exitDy=0;entryX=0;entryY=0.5;entryDx=0;entryDy=0;" edge="1" parent="1" source="-SibCqfSAcz3j39xvlIU-11" target="-SibCqfSAcz3j39xvlIU-14">
          <mxGeometry width="50" height="50" relative="1" as="geometry">
            <mxPoint x="400" y="280" as="sourcePoint" />
            <mxPoint x="450" y="230" as="targetPoint" />
          </mxGeometry>
        </mxCell>
        <mxCell id="-SibCqfSAcz3j39xvlIU-28" value="" style="endArrow=classic;html=1;rounded=0;exitX=0.772;exitY=1;exitDx=0;exitDy=0;exitPerimeter=0;entryX=0;entryY=0.5;entryDx=0;entryDy=0;" edge="1" parent="1" source="-SibCqfSAcz3j39xvlIU-1" target="-SibCqfSAcz3j39xvlIU-8">
          <mxGeometry width="50" height="50" relative="1" as="geometry">
            <mxPoint x="400" y="280" as="sourcePoint" />
            <mxPoint x="450" y="230" as="targetPoint" />
          </mxGeometry>
        </mxCell>
        <mxCell id="-SibCqfSAcz3j39xvlIU-29" value="" style="endArrow=classic;html=1;rounded=0;entryX=0;entryY=0.5;entryDx=0;entryDy=0;exitX=0.641;exitY=1.075;exitDx=0;exitDy=0;exitPerimeter=0;" edge="1" parent="1" source="-SibCqfSAcz3j39xvlIU-1" target="-SibCqfSAcz3j39xvlIU-9">
          <mxGeometry width="50" height="50" relative="1" as="geometry">
            <mxPoint x="220" y="205" as="sourcePoint" />
            <mxPoint x="450" y="230" as="targetPoint" />
          </mxGeometry>
        </mxCell>
        <mxCell id="-SibCqfSAcz3j39xvlIU-30" value="" style="endArrow=classic;html=1;rounded=0;exitX=0.422;exitY=0.975;exitDx=0;exitDy=0;exitPerimeter=0;entryX=0;entryY=0.5;entryDx=0;entryDy=0;" edge="1" parent="1" source="-SibCqfSAcz3j39xvlIU-1" target="-SibCqfSAcz3j39xvlIU-10">
          <mxGeometry width="50" height="50" relative="1" as="geometry">
            <mxPoint x="400" y="280" as="sourcePoint" />
            <mxPoint x="450" y="230" as="targetPoint" />
          </mxGeometry>
        </mxCell>
        <mxCell id="-SibCqfSAcz3j39xvlIU-31" value="" style="endArrow=classic;html=1;rounded=0;exitX=0.296;exitY=0.996;exitDx=0;exitDy=0;exitPerimeter=0;" edge="1" parent="1" target="-SibCqfSAcz3j39xvlIU-11" source="-SibCqfSAcz3j39xvlIU-1">
          <mxGeometry width="50" height="50" relative="1" as="geometry">
            <mxPoint x="170" y="315" as="sourcePoint" />
            <mxPoint x="450" y="230" as="targetPoint" />
          </mxGeometry>
        </mxCell>
        <mxCell id="-SibCqfSAcz3j39xvlIU-32" value="&lt;font style=&quot;font-size: 14px;&quot;&gt;64 Input nodes&lt;/font&gt;" style="text;html=1;align=center;verticalAlign=middle;whiteSpace=wrap;rounded=0;" vertex="1" parent="1">
          <mxGeometry x="265" y="370" width="110" height="50" as="geometry" />
        </mxCell>
        <mxCell id="-SibCqfSAcz3j39xvlIU-33" value="&lt;font style=&quot;font-size: 14px;&quot;&gt;32 hidden nodes&lt;/font&gt;" style="text;html=1;align=center;verticalAlign=middle;whiteSpace=wrap;rounded=0;" vertex="1" parent="1">
          <mxGeometry x="430" y="370" width="110" height="50" as="geometry" />
        </mxCell>
        <mxCell id="-SibCqfSAcz3j39xvlIU-34" value="" style="endArrow=none;dashed=1;html=1;dashPattern=1 3;strokeWidth=2;rounded=0;" edge="1" parent="1">
          <mxGeometry width="50" height="50" relative="1" as="geometry">
            <mxPoint x="484.5" y="200" as="sourcePoint" />
            <mxPoint x="484.5" y="210" as="targetPoint" />
          </mxGeometry>
        </mxCell>
        <mxCell id="-SibCqfSAcz3j39xvlIU-35" value="" style="endArrow=none;dashed=1;html=1;dashPattern=1 3;strokeWidth=2;rounded=0;" edge="1" parent="1">
          <mxGeometry width="50" height="50" relative="1" as="geometry">
            <mxPoint x="484.76" y="270" as="sourcePoint" />
            <mxPoint x="484.76" y="260" as="targetPoint" />
          </mxGeometry>
        </mxCell>
        <mxCell id="-SibCqfSAcz3j39xvlIU-40" value="" style="endArrow=none;html=1;rounded=0;exitX=1;exitY=0.5;exitDx=0;exitDy=0;entryX=0;entryY=0.5;entryDx=0;entryDy=0;strokeColor=#666666;" edge="1" parent="1" source="-SibCqfSAcz3j39xvlIU-8" target="-SibCqfSAcz3j39xvlIU-39">
          <mxGeometry width="50" height="50" relative="1" as="geometry">
            <mxPoint x="335" y="165" as="sourcePoint" />
            <mxPoint x="470" y="170" as="targetPoint" />
          </mxGeometry>
        </mxCell>
        <mxCell id="-SibCqfSAcz3j39xvlIU-41" value="Output Layer" style="rounded=1;whiteSpace=wrap;html=1;dashed=1;verticalAlign=top;" vertex="1" parent="1">
          <mxGeometry x="620" y="120" width="90" height="240" as="geometry" />
        </mxCell>
        <mxCell id="-SibCqfSAcz3j39xvlIU-42" value="" style="ellipse;whiteSpace=wrap;html=1;aspect=fixed;fillColor=#6d8764;fontColor=#ffffff;strokeColor=#3A5431;" vertex="1" parent="1">
          <mxGeometry x="650" y="155" width="30" height="30" as="geometry" />
        </mxCell>
        <mxCell id="-SibCqfSAcz3j39xvlIU-43" value="" style="ellipse;whiteSpace=wrap;html=1;aspect=fixed;fillColor=#6d8764;fontColor=#ffffff;strokeColor=#3A5431;" vertex="1" parent="1">
          <mxGeometry x="650" y="200" width="30" height="30" as="geometry" />
        </mxCell>
        <mxCell id="-SibCqfSAcz3j39xvlIU-44" value="" style="ellipse;whiteSpace=wrap;html=1;aspect=fixed;fillColor=#6d8764;fontColor=#ffffff;strokeColor=#3A5431;" vertex="1" parent="1">
          <mxGeometry x="650" y="250" width="30" height="30" as="geometry" />
        </mxCell>
        <mxCell id="-SibCqfSAcz3j39xvlIU-45" value="" style="ellipse;whiteSpace=wrap;html=1;aspect=fixed;fillColor=#6d8764;fontColor=#ffffff;strokeColor=#3A5431;" vertex="1" parent="1">
          <mxGeometry x="650" y="300" width="30" height="30" as="geometry" />
        </mxCell>
        <mxCell id="-SibCqfSAcz3j39xvlIU-46" value="" style="endArrow=none;html=1;rounded=0;entryX=0;entryY=0.5;entryDx=0;entryDy=0;exitX=1;exitY=0.5;exitDx=0;exitDy=0;" edge="1" parent="1" source="-SibCqfSAcz3j39xvlIU-13" target="-SibCqfSAcz3j39xvlIU-42">
          <mxGeometry width="50" height="50" relative="1" as="geometry">
            <mxPoint x="440" y="340" as="sourcePoint" />
            <mxPoint x="490" y="290" as="targetPoint" />
          </mxGeometry>
        </mxCell>
        <mxCell id="-SibCqfSAcz3j39xvlIU-48" value="" style="endArrow=none;html=1;rounded=0;exitX=0;exitY=0.5;exitDx=0;exitDy=0;entryX=1;entryY=0.5;entryDx=0;entryDy=0;opacity=40;" edge="1" parent="1" source="-SibCqfSAcz3j39xvlIU-43" target="-SibCqfSAcz3j39xvlIU-13">
          <mxGeometry width="50" height="50" relative="1" as="geometry">
            <mxPoint x="440" y="340" as="sourcePoint" />
            <mxPoint x="490" y="290" as="targetPoint" />
          </mxGeometry>
        </mxCell>
        <mxCell id="-SibCqfSAcz3j39xvlIU-49" value="" style="endArrow=none;html=1;rounded=0;entryX=0;entryY=0.5;entryDx=0;entryDy=0;opacity=80;" edge="1" parent="1" target="-SibCqfSAcz3j39xvlIU-44">
          <mxGeometry width="50" height="50" relative="1" as="geometry">
            <mxPoint x="500" y="170" as="sourcePoint" />
            <mxPoint x="490" y="290" as="targetPoint" />
          </mxGeometry>
        </mxCell>
        <mxCell id="-SibCqfSAcz3j39xvlIU-50" value="" style="endArrow=none;html=1;rounded=0;entryX=0;entryY=0.5;entryDx=0;entryDy=0;opacity=30;" edge="1" parent="1" target="-SibCqfSAcz3j39xvlIU-45">
          <mxGeometry width="50" height="50" relative="1" as="geometry">
            <mxPoint x="500" y="170" as="sourcePoint" />
            <mxPoint x="490" y="290" as="targetPoint" />
          </mxGeometry>
        </mxCell>
        <mxCell id="-SibCqfSAcz3j39xvlIU-51" value="" style="endArrow=none;html=1;rounded=0;entryX=1;entryY=0.5;entryDx=0;entryDy=0;exitX=0;exitY=0.5;exitDx=0;exitDy=0;opacity=70;" edge="1" parent="1" source="-SibCqfSAcz3j39xvlIU-42" target="-SibCqfSAcz3j39xvlIU-14">
          <mxGeometry width="50" height="50" relative="1" as="geometry">
            <mxPoint x="440" y="340" as="sourcePoint" />
            <mxPoint x="490" y="290" as="targetPoint" />
          </mxGeometry>
        </mxCell>
        <mxCell id="-SibCqfSAcz3j39xvlIU-52" value="" style="endArrow=none;html=1;rounded=0;entryX=1;entryY=0.5;entryDx=0;entryDy=0;opacity=50;" edge="1" parent="1" source="-SibCqfSAcz3j39xvlIU-43" target="-SibCqfSAcz3j39xvlIU-14">
          <mxGeometry width="50" height="50" relative="1" as="geometry">
            <mxPoint x="440" y="340" as="sourcePoint" />
            <mxPoint x="490" y="290" as="targetPoint" />
          </mxGeometry>
        </mxCell>
        <mxCell id="-SibCqfSAcz3j39xvlIU-53" value="" style="endArrow=none;html=1;rounded=0;exitX=1;exitY=0.5;exitDx=0;exitDy=0;entryX=0;entryY=0.5;entryDx=0;entryDy=0;opacity=40;" edge="1" parent="1" source="-SibCqfSAcz3j39xvlIU-14" target="-SibCqfSAcz3j39xvlIU-44">
          <mxGeometry width="50" height="50" relative="1" as="geometry">
            <mxPoint x="440" y="340" as="sourcePoint" />
            <mxPoint x="490" y="290" as="targetPoint" />
          </mxGeometry>
        </mxCell>
        <mxCell id="-SibCqfSAcz3j39xvlIU-54" value="" style="endArrow=none;html=1;rounded=0;entryX=1;entryY=0.5;entryDx=0;entryDy=0;exitX=0;exitY=0.5;exitDx=0;exitDy=0;opacity=60;" edge="1" parent="1" source="-SibCqfSAcz3j39xvlIU-45" target="-SibCqfSAcz3j39xvlIU-14">
          <mxGeometry width="50" height="50" relative="1" as="geometry">
            <mxPoint x="440" y="340" as="sourcePoint" />
            <mxPoint x="490" y="290" as="targetPoint" />
          </mxGeometry>
        </mxCell>
        <mxCell id="-SibCqfSAcz3j39xvlIU-55" value="" style="endArrow=none;html=1;rounded=0;entryX=1;entryY=0.5;entryDx=0;entryDy=0;exitX=0;exitY=0.5;exitDx=0;exitDy=0;opacity=40;" edge="1" parent="1" source="-SibCqfSAcz3j39xvlIU-45" target="-SibCqfSAcz3j39xvlIU-15">
          <mxGeometry width="50" height="50" relative="1" as="geometry">
            <mxPoint x="440" y="340" as="sourcePoint" />
            <mxPoint x="490" y="290" as="targetPoint" />
          </mxGeometry>
        </mxCell>
        <mxCell id="-SibCqfSAcz3j39xvlIU-56" value="" style="endArrow=none;html=1;rounded=0;entryX=1;entryY=0.5;entryDx=0;entryDy=0;exitX=0;exitY=0.5;exitDx=0;exitDy=0;opacity=50;" edge="1" parent="1" source="-SibCqfSAcz3j39xvlIU-42" target="-SibCqfSAcz3j39xvlIU-15">
          <mxGeometry width="50" height="50" relative="1" as="geometry">
            <mxPoint x="440" y="340" as="sourcePoint" />
            <mxPoint x="490" y="290" as="targetPoint" />
          </mxGeometry>
        </mxCell>
        <mxCell id="-SibCqfSAcz3j39xvlIU-57" value="" style="endArrow=none;html=1;rounded=0;entryX=1;entryY=0.5;entryDx=0;entryDy=0;exitX=0;exitY=0.5;exitDx=0;exitDy=0;" edge="1" parent="1" source="-SibCqfSAcz3j39xvlIU-43" target="-SibCqfSAcz3j39xvlIU-15">
          <mxGeometry width="50" height="50" relative="1" as="geometry">
            <mxPoint x="440" y="340" as="sourcePoint" />
            <mxPoint x="490" y="290" as="targetPoint" />
          </mxGeometry>
        </mxCell>
        <mxCell id="-SibCqfSAcz3j39xvlIU-58" value="" style="endArrow=none;html=1;rounded=0;entryX=1;entryY=0.5;entryDx=0;entryDy=0;exitX=0;exitY=0.5;exitDx=0;exitDy=0;opacity=30;" edge="1" parent="1" source="-SibCqfSAcz3j39xvlIU-44" target="-SibCqfSAcz3j39xvlIU-15">
          <mxGeometry width="50" height="50" relative="1" as="geometry">
            <mxPoint x="440" y="340" as="sourcePoint" />
            <mxPoint x="490" y="290" as="targetPoint" />
          </mxGeometry>
        </mxCell>
        <mxCell id="-SibCqfSAcz3j39xvlIU-60" value="&lt;font style=&quot;font-size: 14px;&quot;&gt;4 Output nodes&lt;/font&gt;" style="text;html=1;align=center;verticalAlign=middle;whiteSpace=wrap;rounded=0;" vertex="1" parent="1">
          <mxGeometry x="610" y="370" width="110" height="50" as="geometry" />
        </mxCell>
        <mxCell id="-SibCqfSAcz3j39xvlIU-61" value="300 Dimension Input" style="text;html=1;align=center;verticalAlign=middle;whiteSpace=wrap;rounded=0;" vertex="1" parent="1">
          <mxGeometry x="190" y="340" width="60" height="30" as="geometry" />
        </mxCell>
      </root>
    </mxGraphModel>
  </diagram>
</mxfile>
